<svg aria-hidden="true"
    class="svg-inline--fa fa-vrchat-group css-1efeorg e9fqopp0"
    data-icon="vrchat-group"
    data-prefix="vrchat"
    focusable="false"
    role="presentation"
    viewBox="0 0 64 64"
    xmlns="http://www.w3.org/2000/svg">
    <path
        d="M41.61,24.28 L47.92,37.57 L49.2179049,40.3241512 C50.110782,40.1121924 51.0422891,40 52,40 C58.627417,40 64,45.372583 64,52 C64,58.627417 58.627417,64 52,64 C45.372583,64 40,58.627417 40,52 C40,48.1183234 41.8430335,44.6671104 44.7017586,42.4737028 L43.4,39.72 L37.09,26.43 C38.73,25.97 40.25,25.23 41.61,24.28 Z M12,40 C17.7701692,40 22.589132,44.0725989 23.739244,49.5001523 L37.21,49.5 C37.07,50.31 37,51.15 37,52 C37,52.85 37.07,53.69 37.21,54.5 L23.7390315,54.5008502 C22.5885386,59.9279026 17.769814,64 12,64 C5.372583,64 0,58.627417 0,52 C0,45.372583 5.372583,40 12,40 Z M33,0 L33.3049748,0.00379985776 C39.7914556,0.165607248 45,5.47454326 45,12 C45,18.627417 39.627417,24 33,24 C31.8758881,24 30.787877,23.8454341 29.7560602,23.5563959 L21.08,40.07 C19.76,39.06 18.27,38.27 16.66,37.75 L25.33,21.24 C22.6858567,19.0311889 21,15.7124709 21,12 C21,5.372583 26.372583,0 33,0 Z"
        fill="currentColor" />
</svg>